<?xml version="1.0" encoding="UTF-8"?>
<svg version="1.1" xmlns="http://www.w3.org/2000/svg" width="3000" height="3000">
<path d="M0 0 C5.15658981 0.07371463 10.312838 0.04855011 15.46980679 0.03566134 C24.39426304 0.02676552 33.31659951 0.0799016 42.2405225 0.1757046 C55.14248085 0.31412341 68.04341875 0.35816445 80.9460391 0.37950046 C101.88122874 0.41666763 122.81528956 0.5296913 143.7498666 0.69064486 C164.08053849 0.84679239 184.4109033 0.9670736 204.7420541 1.03927767 C205.99616384 1.04374397 207.25027357 1.04821027 208.54238663 1.05281191 C214.83416045 1.07499825 221.12593644 1.09648112 227.41771388 1.11761427 C279.57877197 1.29372503 331.73860494 1.59303854 383.89854825 1.97311556 C384.08801526 2.75160357 384.27748227 3.53009158 384.4726907 4.33217013 C385.35300302 7.93641614 386.24097392 11.5387356 387.129017 15.14108431 C387.42675015 16.36500887 387.7244833 17.58893343 388.03123868 18.84994662 C398.07311326 59.43948505 416.49140956 99.40139649 442.89854825 131.97311556 C443.635892 132.90252963 444.37323575 133.83194369 445.13292325 134.78952181 C457.26846822 149.91591919 470.67642896 163.94824458 485.89854825 175.97311556 C487.04234263 176.91616784 488.18416972 177.86160972 489.3243295 178.80905306 C519.63258607 203.83641786 555.53054079 219.12401804 593.58604825 228.09811556 C594.55131436 228.32781039 595.51658047 228.55750521 596.51109707 228.79416049 C599.26384922 229.41929101 602.02365391 229.98374937 604.79180253 230.53566217 C606.19127109 230.82625361 607.58720368 231.13445254 608.97884285 231.46048331 C630.64074428 236.49585795 652.83800876 235.53916935 674.92745697 235.48135519 C680.89893352 235.47014546 686.8703725 235.48222075 692.84184659 235.49119723 C703.83747409 235.50426561 714.83300155 235.49939977 725.82862526 235.48512194 C735.99063336 235.47201336 746.1526086 235.46688508 756.31462491 235.4694401 C756.99157478 235.46960052 757.66852465 235.46976093 758.36598815 235.46992621 C761.11470491 235.47058992 763.86342166 235.47129235 766.6121384 235.47205155 C792.33958479 235.47905833 818.06697344 235.46364249 843.79440513 235.43742809 C866.59671575 235.41431713 889.39896293 235.40892673 912.20128262 235.41916049 C918.04231653 235.421763 923.88335044 235.42434817 929.72438443 235.42675841 C930.44373298 235.42705586 931.16308153 235.4273533 931.90422852 235.42765976 C951.02025431 235.43529343 970.13627499 235.42884568 989.25229847 235.41806239 C991.31190176 235.41691471 993.37150505 235.41577154 995.43110834 235.41463556 C996.79709395 235.41388032 998.16307955 235.41311468 999.52906515 235.41233856 C1009.67878195 235.4067062 1019.82848228 235.4079925 1029.97819912 235.41256678 C1041.53161589 235.41751481 1053.08496732 235.4114144 1064.6383692 235.39167248 C1070.52291485 235.38186198 1076.40736141 235.37662719 1082.2919122 235.384565 C1114.73444302 235.68754831 1114.73444302 235.68754831 1146.89854825 231.97311556 C1148.40280865 231.69401758 1148.40280865 231.69401758 1149.93745816 231.40928125 C1181.50245043 225.47326063 1211.67861547 213.72994405 1237.89854825 194.97311556 C1239.50149746 193.83616244 1239.50149746 193.83616244 1241.1368295 192.67624056 C1244.10987766 190.50140378 1247.01342097 188.2630868 1249.89854825 185.97311556 C1250.862767 185.21385775 1251.82698575 184.45459994 1252.82042325 183.67233431 C1268.15511907 171.15937821 1282.19957844 156.93900414 1293.89854825 140.97311556 C1294.9349545 139.66407259 1294.9349545 139.66407259 1295.99229825 138.32858431 C1308.38513978 122.53695974 1318.44174697 104.79348882 1329.02598965 87.76510775 C1329.60784024 86.82957064 1330.18969082 85.89403353 1330.78917325 84.93014681 C1331.54762539 83.70775301 1331.54762539 83.70775301 1332.32139981 82.46066439 C1332.84185879 81.63977328 1333.36231778 80.81888216 1333.89854825 79.97311556 C1334.45426731 78.94442732 1335.00998637 77.91573908 1335.5825454 76.85587847 C1337.89854825 73.97311556 1337.89854825 73.97311556 1340.92047608 73.28030932 C1342.1121939 73.30705611 1343.30391173 73.3338029 1344.53174222 73.36136019 C1345.19736436 73.36779591 1345.8629865 73.37423162 1346.54877901 73.38086236 C1348.78280469 73.40948934 1351.01340155 73.48110804 1353.24644864 73.55221713 C1354.85481252 73.5811692 1356.46322985 73.60727114 1358.07168305 73.63074267 C1361.53762362 73.68624802 1365.00256875 73.75963625 1368.46787274 73.84611666 C1373.88280364 73.97873918 1379.29761859 74.0569426 1384.71370327 74.12436068 C1396.58729165 74.27803792 1408.45959713 74.48868727 1420.332142 74.70749056 C1421.3931088 74.72693885 1422.45407561 74.74638714 1423.54719293 74.76642478 C1433.58255236 74.95053879 1443.61786234 75.1371354 1453.65304863 75.33047259 C1466.37531314 75.57544326 1479.09767137 75.80699982 1491.82049423 76.02108324 C1500.84485358 76.17401028 1509.86886362 76.34176055 1518.89274567 76.52062976 C1524.25726884 76.62657115 1529.62172576 76.72600315 1534.98665059 76.80941164 C1540.00169809 76.88768641 1545.0160565 76.98425789 1550.03048718 77.09507906 C1551.86821891 77.13248808 1553.70610054 77.16321567 1555.54406178 77.18679202 C1558.05034033 77.21994754 1560.55496707 77.27706078 1563.06064236 77.34024203 C1563.78803866 77.34415446 1564.51543496 77.34806688 1565.26487356 77.35209787 C1570.05806594 77.50782917 1572.54394783 78.55507247 1575.89854825 81.97311556 C1582.73199207 94.22618724 1577.04739879 112.12039753 1573.64854825 124.90280306 C1572.20656318 129.9729406 1570.5615814 134.97199002 1568.89854825 139.97311556 C1568.55050137 141.04271517 1568.2024545 142.11231478 1567.84386075 143.2143265 C1551.09217664 194.52357961 1526.74579672 243.06633524 1493.89854825 285.97311556 C1493.40757657 286.61716341 1492.91660489 287.26121127 1492.41075528 287.92477572 C1483.50966895 299.56040359 1473.9929016 310.66793723 1464.129017 321.49655306 C1462.91922398 322.83982587 1461.71544235 324.18911968 1460.54649746 325.56808627 C1455.15433267 331.89002076 1449.31119895 337.74657133 1443.43907559 343.61789095 C1441.66093053 345.39821809 1439.89095263 347.18639933 1438.1212045 348.97506869 C1431.35295836 355.77630159 1424.42888959 362.01539774 1416.89854825 367.97311556 C1415.80828604 368.89598123 1414.72366721 369.82562064 1413.64854825 370.76608431 C1348.1528188 427.79574646 1262.82312743 463.49099213 1177.52354825 476.28561556 C1176.5478085 476.43264925 1175.57206875 476.57968295 1174.56676114 476.7311722 C1156.51863205 479.29406945 1138.66200277 480.26840301 1120.44697964 480.23381197 C1118.15470792 480.23683999 1115.86243721 480.2407327 1113.57016826 480.24540454 C1107.33044845 480.25560959 1101.09078658 480.253522 1094.85106218 480.24922395 C1088.79376553 480.2469985 1082.73648398 480.25418708 1076.67919249 480.2609842 C1062.77671236 480.27615807 1048.87425057 480.27793609 1034.97176389 480.27546117 C1024.22926385 480.27362256 1013.48676975 480.2754 1002.74427044 480.27968562 C1001.19633101 480.28028804 999.64839157 480.28088924 998.10045213 480.28148922 C995.76733126 480.28239656 993.43421039 480.28330523 991.10108952 480.28422157 C969.4315673 480.29264124 947.76204732 480.29699365 926.09252369 480.29281485 C925.27702062 480.29265847 924.46151755 480.2925021 923.62130227 480.29234098 C919.48880321 480.2915353 915.35630416 480.29068953 911.22380511 480.28982768 C910.40320212 480.28965659 909.58259914 480.28948551 908.73712939 480.28930923 C907.07767385 480.28896258 905.41821831 480.28861405 903.75876278 480.28826365 C877.94938738 480.2829089 852.14004617 480.2908339 826.33067715 480.3092972 C797.27617487 480.33005807 768.22169375 480.34073211 739.16718364 480.33672172 C736.06336264 480.33632643 732.95954164 480.33596487 729.85572064 480.33562434 C729.0915859 480.33553361 728.32745116 480.33544287 727.54016083 480.33534939 C716.05353905 480.33418815 704.56693879 480.34079553 693.08032238 480.35143626 C680.0011676 480.36354053 666.92205993 480.36498749 653.84290437 480.35264609 C647.18031264 480.34663902 640.51779284 480.34558251 633.85520184 480.35764849 C583.03849364 480.44351126 583.03849364 480.44351126 560.89854825 476.97311556 C559.42348032 476.76916878 557.94788542 476.56897923 556.47167408 476.37348044 C513.91574555 470.6615573 471.92302287 457.71634976 432.89854825 439.97311556 C431.98653653 439.56383822 431.07452481 439.15456088 430.13487637 438.73288119 C416.83670691 432.73566751 404.14324849 425.82648454 391.53477871 418.49997103 C389.15560767 417.12199958 386.76636046 415.76444092 384.3712045 414.41452181 C364.21020747 402.95262165 345.66255735 388.82896492 327.89854825 373.97311556 C327.37180508 373.53273959 326.84506192 373.09236361 326.30235684 372.63864291 C311.90772462 360.56260917 298.37443882 347.62258047 285.11436856 334.31930697 C283.11130869 332.31077426 281.10280517 330.30779209 279.09386075 328.30514681 C277.80447665 327.01510358 276.51540188 325.72475109 275.22667325 324.43405306 C274.63299954 323.84240359 274.03932583 323.25075411 273.42766201 322.64117587 C272.87568142 322.08604311 272.32370083 321.53091036 271.75499356 320.95895541 C271.27395169 320.47711794 270.79290982 319.99528048 270.29729092 319.49884188 C268.89854825 317.97311556 268.89854825 317.97311556 267.68381703 315.91214621 C266.02229263 313.72317494 266.02229263 313.72317494 263.22539723 313.45248282 C262.1397328 313.44272012 261.05406838 313.43295743 259.93550503 313.42289889 C258.68855862 313.40201708 257.44161221 313.38113528 256.15687954 313.35962069 C254.77177899 313.35648497 253.38667756 313.35372045 252.00157559 313.35128939 C250.54415721 313.33432874 249.08675835 313.31561362 247.62938321 313.29527438 C243.66109488 313.24479428 239.69296747 313.21870276 235.72443354 313.19661319 C231.55059142 313.16901098 227.37703213 313.11834091 223.20338833 313.0699631 C215.26831724 312.98135949 207.33320576 312.91233781 199.39788318 312.85081607 C187.84827639 312.76047446 176.29895214 312.64216599 164.74961674 312.5225569 C163.02619952 312.50474358 161.30278223 312.48693558 159.5793649 312.46913302 C158.73535488 312.46037337 157.89134487 312.45161372 157.02175879 312.44258863 C150.50983422 312.37587352 143.99784888 312.3217577 137.4857893 312.27018946 C131.62835275 312.22133276 125.77179484 312.1393927 119.91495252 312.0435763 C115.38911366 311.97553393 110.86910995 311.99435613 106.34318936 312.04229891 C104.07859651 312.03310883 101.81400798 312.02274321 99.54942715 312.01095736 C98.04066038 312.05488855 98.04066038 312.05488855 96.50141346 312.09970725 C89.90264812 311.99879986 89.90264812 311.99879986 86.98572361 309.01917231 C85.43872762 306.72894898 84.14495058 304.43734121 82.89854825 301.97311556 C81.85174893 300.29717318 81.85174893 300.29717318 80.78380215 298.58737338 C80.15393399 297.54419955 79.52406582 296.50102572 78.87511075 295.42624056 C78.52524106 294.84831759 78.17537137 294.27039462 77.81489956 293.67495883 C76.71588211 291.85881834 75.61957656 290.0410612 74.52354825 288.22311556 C73.43872735 286.42741562 72.35331677 284.63207978 71.26665127 282.83749545 C70.55010843 281.65132299 69.83641773 280.4634227 69.12566006 279.27377474 C67.32096204 276.26383589 65.46988975 273.30658684 63.50694668 270.39694369 C63.12565609 269.81869845 62.74436551 269.24045321 62.35152066 268.64468539 C61.29854345 267.05424477 60.22490968 265.47753576 59.15001309 263.9018265 C57.89854825 260.97311556 57.89854825 260.97311556 58.6158334 257.71237338 C60.59736095 253.48079 60.59736095 253.48079 62.89854825 251.97311556 C67.43163874 251.17234877 71.80008684 250.84847188 76.39775383 250.85006773 C77.66919698 250.84807669 78.94064012 250.84608564 80.25061184 250.84403425 C81.64883672 250.84688676 83.04706141 250.84983235 84.44528592 250.85286105 C85.94038042 250.85242473 87.43547485 250.8515487 88.93056887 250.85027188 C93.03073139 250.84803886 97.13086771 250.85203189 101.23102689 250.85704994 C105.65562139 250.86137138 110.08021443 250.85990681 114.50481045 250.85914767 C122.16800612 250.85862351 129.83119327 250.86175905 137.49438679 250.86738551 C148.57405674 250.8755151 159.65372256 250.87811723 170.73339517 250.8793735 C188.70975387 250.88156172 206.68610803 250.88821559 224.66246426 250.89767611 C242.12405257 250.90685616 259.58563965 250.9139341 277.04722989 250.91818392 C278.12369623 250.91844665 279.20016256 250.91870937 280.3092491 250.91898005 C285.70960437 250.9202851 291.10995965 250.92154881 296.51031494 250.92279196 C341.30639585 250.93315742 386.10247182 250.9507695 430.89854825 250.97311556 C430.89854825 249.98311556 430.89854825 248.99311556 430.89854825 247.97311556 C429.88159375 247.73920107 428.86463925 247.50528658 427.81686795 247.26428378 C417.08504726 244.77802477 406.4253173 242.06854199 395.7774545 239.24655306 C394.02956344 238.78511961 392.28162177 238.32387785 390.53363431 237.86280978 C385.82390748 236.61986143 381.11495367 235.37400855 376.40617001 234.12749255 C372.4327129 233.07598389 368.45883059 232.02608713 364.48495114 230.9761759 C351.72444671 227.60473144 338.96548769 224.22746086 326.20682919 220.84903872 C321.77572521 219.67582923 317.3445012 218.50307346 312.91328156 217.33030093 C299.75260472 213.84710406 286.59268035 210.36107448 273.43328869 206.87302554 C270.31615321 206.04690694 267.19892862 205.22112534 264.08168423 204.39541781 C262.06563293 203.86129332 260.04959074 203.32713438 258.03355801 202.79293978 C257.05217201 202.53290164 256.070786 202.27286349 255.05966103 202.0049454 C247.5909835 200.02484316 240.12567294 198.03227768 232.66124833 196.03621066 C227.56962452 194.67718785 222.47294883 193.34001814 217.37019551 192.0234133 C214.27488842 191.22267028 211.18281975 190.4099005 208.09128582 189.5947262 C206.67990927 189.22576208 205.26707234 188.86232981 203.85269177 188.50505412 C190.21068564 185.05584016 190.21068564 185.05584016 185.89854825 179.97311556 C184.49132168 176.77584994 184.49132168 176.77584994 183.50792325 173.06686556 C183.10213668 171.62701029 182.69240081 170.18826409 182.27940762 168.75045931 C182.06147549 167.97879427 181.84354336 167.20712924 181.61900723 166.41208041 C180.32124701 162.01878165 178.79747879 157.70396631 177.28917325 153.37936556 C176.96159024 152.43474459 176.63400723 151.49012362 176.29649746 150.51687777 C175.24972495 147.5013995 174.19920877 144.48724112 173.14854825 141.47311556 C172.40822533 139.34261247 171.66799263 137.21207803 170.92784512 135.081514 C167.00275883 123.79752155 163.04064313 112.52712192 159.03917325 101.26999056 C158.64747952 100.16751986 158.25578579 99.06504916 157.85222256 97.92917025 C155.96344146 92.61562416 154.06991266 87.30383817 152.16905606 81.99459994 C151.48507069 80.07600371 150.801148 78.15738513 150.11729825 76.23874056 C149.8045596 75.370134 149.49182095 74.50152743 149.16960537 73.60659945 C146.95025897 67.36614305 146.95025897 67.36614305 146.50987637 64.019014 C146.10024029 61.77425695 146.10024029 61.77425695 143.86757195 60.86138976 C140.14091141 59.74644535 136.63469343 59.69453658 132.78284085 59.71483004 C131.9701752 59.71115434 131.15750955 59.70747863 130.32021767 59.70369154 C127.59960043 59.69371868 124.87918786 59.69786092 122.15855801 59.70187533 C120.2069872 59.6974879 118.25541826 59.69218568 116.3038522 59.68603671 C112.10232345 59.67453744 107.90084512 59.66907734 103.69930089 59.66815531 C97.05602946 59.66621515 90.41286242 59.64816518 83.76962674 59.62739718 C67.26909128 59.57820258 50.76852749 59.54731522 34.26793301 59.52609408 C21.4443341 59.50957697 8.6208246 59.48678095 -4.20271438 59.44307333 C-10.80694058 59.42128086 -17.41099696 59.41324062 -24.01525664 59.41546607 C-28.12368314 59.41380003 -32.23199865 59.39975587 -36.34038532 59.38225329 C-38.2455164 59.37665127 -40.15067047 59.37617086 -42.05580318 59.3811909 C-44.65704318 59.3873266 -47.25758175 59.37511103 -49.85876071 59.35838473 C-50.61217178 59.36459654 -51.36558284 59.37080836 -52.14182454 59.37720841 C-57.72006503 59.31187102 -61.74616053 58.01436796 -65.97645175 54.34811556 C-67.7326107 50.6406689 -67.89317942 46.98162648 -67.10145175 42.97311556 C-64.37630165 37.54209707 -60.89615191 32.87387351 -57.16395175 28.09811556 C-56.13373851 26.76759179 -55.10380757 25.43684941 -54.074108 24.10592806 C-53.47317168 23.39591615 -52.87223535 22.68590424 -52.25308883 21.95437682 C-50.46800955 19.48101002 -49.45304017 17.57033479 -48.28029716 14.8209635 C-39.03516938 -4.0429307 -17.98859033 -0.32256384 0 0 Z " fill="#0483F1" transform="translate(713.10145175457,1396.0268844366074)"/>
<path d="M0 0 C2.94143952 0.00710443 5.88287953 0.01036957 8.82432526 0.01381499 C20.31802106 0.02769833 31.81164996 0.06056937 43.30529952 0.09498715 C45.41569431 0.1011811 47.52608911 0.10737359 49.63648391 0.11356473 C83.15997737 0.21289563 116.68332255 0.34430362 150.20666945 0.48382652 C159.43688593 0.52201301 168.66710969 0.55777535 177.89734054 0.59230161 C237.97849078 0.81762151 298.05406025 1.14978939 358.13088584 1.92031693 C369.6359432 2.06709172 381.14097816 2.18332701 392.64653277 2.2833159 C401.8891756 2.36477686 411.13129326 2.4700892 420.37342906 2.59661508 C425.8851478 2.67113499 431.39644994 2.73208957 436.908571 2.76735044 C463.12837734 2.94476237 488.10272057 4.01874 513.65158248 10.20997739 C516.96759419 11.01318758 520.28943374 11.76956468 523.62097335 12.5051434 C528.87150418 13.68024297 534.09099096 14.9567198 539.30529952 16.28248715 C540.20745193 16.50943265 541.10960433 16.73637815 542.03909469 16.97020078 C560.79484782 21.71173566 579.13469248 27.4656915 597.30529952 34.09498715 C598.45965499 34.51602719 599.61401046 34.93706723 600.8033464 35.37086606 C641.31380092 50.40186704 679.9584234 71.58677982 711.89514327 100.9270184 C714.38879879 103.17009589 716.95009298 105.29526002 719.55529952 107.40748715 C730.36090275 116.17945157 740.73776893 125.32567005 750.86389327 134.8723309 C753.56889826 137.4188653 756.32377297 139.89602048 759.11779952 142.34498715 C764.07771686 146.77885265 768.78205177 151.46241498 773.49279952 156.15748715 C774.25374923 156.91384458 775.01469893 157.670202 775.79870772 158.44947934 C779.95408329 162.61619229 783.94418192 166.86943508 787.78405929 171.32862973 C789.70677752 173.56115524 791.69239979 175.73298381 793.68029952 177.90748715 C841.158107 230.72256494 875.59373569 304.70259993 892.80529952 373.34498715 C893.06125899 374.34497739 893.31721847 375.34496762 893.58093429 376.37526059 C895.45606734 384.28265506 897.20014148 393.09476525 893.61779952 400.65748715 C890.01039056 404.45989119 887.21228642 406.24647442 881.94189143 406.44851327 C880.15880553 406.45376102 878.37562418 406.44228189 876.59269881 406.41778684 C875.60837412 406.41626656 874.62404943 406.41474628 873.60989672 406.41317993 C870.30851038 406.40440361 867.00767676 406.37402298 863.70642257 406.34376645 C861.34118862 406.33305932 858.97594834 406.32368212 856.61070418 406.31553769 C850.1854592 406.28963381 843.76046171 406.24508146 837.33534765 406.19723988 C831.30223116 406.15370924 825.26902603 406.12695702 819.23582301 406.09871016 C807.28681395 406.04231308 795.33792343 405.97242777 783.38903975 405.89405942 C771.78262712 405.8179661 760.17620496 405.74822567 748.56970382 405.68702817 C747.8541385 405.683253 747.13857317 405.67947784 746.40132406 405.67558827 C742.81150067 405.65668834 739.22167664 405.6379133 735.63185227 405.61920035 C705.85621115 405.46382506 676.0807322 405.28633463 646.30529952 405.09498715 C645.91556457 404.30537091 645.52582961 403.51575467 645.12428451 402.70221066 C643.6475819 399.71537711 642.16715674 396.73044586 640.6843431 393.74664426 C640.04871502 392.46576814 639.41449072 391.18419425 638.78181624 389.90185666 C629.76814664 371.63897406 619.15140651 354.90061785 606.30529952 339.09498715 C605.58938643 338.20553403 605.58938643 338.20553403 604.85901046 337.29811215 C593.91141012 323.7866888 581.47876068 311.42712641 568.30529952 300.09498715 C567.23362468 299.14600257 566.16323862 298.19555989 565.09436202 297.24342465 C538.60117914 273.89011287 499.5538392 245.92436296 462.69499469 245.95238614 C461.81267142 245.94913512 460.93034816 245.9458841 460.02128783 245.94253457 C457.04364976 245.93281538 454.06604803 245.93024015 451.08839583 245.92762876 C448.94009044 245.92218338 446.79178607 245.91632004 444.64348286 245.91007304 C438.72268536 245.89419961 432.80189201 245.88469913 426.88107979 245.8763082 C421.80615267 245.86831028 416.73123679 245.85661811 411.65631712 245.8448934 C394.19656818 245.80462735 376.73680881 245.77769328 359.27703034 245.75419059 C357.09723915 245.75124632 354.91744803 245.7482563 352.73765692 245.74525261 C324.9807456 245.70707437 297.22382864 245.67358178 269.4668991 245.65199346 C262.40871929 245.6464999 255.35053965 245.6408002 248.29236007 245.63502622 C247.51249121 245.63439379 246.73262236 245.63376136 245.92912111 245.63310977 C220.69504195 245.61247054 195.46109223 245.56655682 170.2270787 245.50637353 C144.26072545 245.44455721 118.29444142 245.40575658 92.32801349 245.39649021 C88.65085525 245.39517369 84.97369715 245.39361176 81.29653907 245.39190793 C80.21111997 245.39141974 80.21111997 245.39141974 79.10377321 245.39092169 C67.51275978 245.38507171 55.92192443 245.35560134 44.33097824 245.31720171 C32.64714906 245.27905009 20.96353129 245.26771317 9.27964628 245.28096431 C2.9630586 245.28739255 -3.35298189 245.28288036 -9.66948342 245.24709058 C-45.1816251 244.91712476 -45.1816251 244.91712476 -79.75156629 252.15025353 C-84.03787808 253.52614148 -88.37049267 254.73043466 -92.70155495 255.95657897 C-128.297158 266.30575881 -164.04943957 282.19180847 -192.69470048 306.09498715 C-193.22176591 306.52875669 -193.74883134 306.96252622 -194.29186845 307.40944028 C-205.04109151 316.25837132 -215.86513224 325.28363206 -224.69470048 336.09498715 C-225.64630391 337.2344934 -226.59815075 338.37379639 -227.55016923 339.5129559 C-239.48834384 353.89994016 -250.49294673 368.80682534 -259.69470048 385.09498715 C-260.14136064 385.87229184 -260.58802079 386.64959653 -261.0482161 387.4504559 C-275.06571631 411.91943462 -285.27469085 437.60551962 -294.69470048 464.09498715 C-321.32884397 457.54730063 -347.85370578 450.6183878 -374.35632539 443.55896878 C-378.63873798 442.41869334 -382.92165665 441.28032495 -387.20456815 440.1419251 C-400.04611474 436.72854195 -412.8860517 433.30913588 -425.72515702 429.88658261 C-428.58949214 429.12303269 -431.4538611 428.35960989 -434.31823564 427.59620786 C-444.98383474 424.75340543 -455.64853722 421.90726441 -466.31206727 419.05671048 C-468.46182185 418.48211612 -470.61165631 417.90782146 -472.76150346 417.33357358 C-480.48061192 415.27113368 -488.19724222 413.19980037 -495.91058183 411.11586118 C-498.54340122 410.40558299 -501.17671095 409.69742221 -503.81085038 408.99208188 C-507.23079436 408.0759983 -510.64880505 407.15300148 -514.06558633 406.22519422 C-515.97475051 405.70850335 -517.88571092 405.19846408 -519.79670548 404.68858457 C-520.93697694 404.37748746 -522.07724839 404.06639035 -523.25207353 403.74586606 C-524.25804078 403.47448819 -525.26400804 403.20311032 -526.30045915 402.92350888 C-528.69470048 402.09498715 -528.69470048 402.09498715 -530.69470048 400.09498715 C-530.27809159 399.10208676 -529.86148271 398.10918637 -529.43224931 397.08619809 C-519.48335704 373.32497886 -510.08199029 349.45337746 -501.69470048 325.09498715 C-501.43823747 324.35329282 -501.18177445 323.61159848 -500.91753983 322.84742856 C-499.40134281 318.45707303 -497.90646297 314.06040115 -496.44244218 309.6523602 C-495.99010122 308.29424947 -495.53335813 306.93759603 -495.07195878 305.58253598 C-494.44288401 303.72713483 -493.83578593 301.86432553 -493.22985673 300.00123715 C-492.88317948 298.95258481 -492.53650224 297.90393247 -492.17931962 296.82350278 C-491.4872823 294.13970529 -491.4872823 294.13970529 -492.41125321 291.78834653 C-493.67709817 289.78694016 -493.67709817 289.78694016 -496.69470048 289.09498715 C-498.52292821 289.00302883 -500.35436535 288.97033787 -502.18490434 288.9704144 C-503.32612748 288.96785138 -504.46735063 288.96528836 -505.64315629 288.96264768 C-506.89621568 288.96474744 -508.14927506 288.9668472 -509.44030595 288.96901059 C-511.46482387 288.96614298 -513.4893418 288.96326748 -515.51385927 288.96009517 C-517.69114489 288.95741405 -519.86842269 288.9569702 -522.04570985 288.95688748 C-526.58402722 288.95574724 -531.12226323 288.94290985 -535.66055131 288.92732358 C-536.4264684 288.92475073 -537.19238549 288.92217787 -537.98151219 288.91952705 C-539.54770118 288.91426053 -541.11389011 288.90897505 -542.68007898 288.90367103 C-553.24567512 288.86855777 -563.81117005 288.84201036 -574.37682939 288.84449887 C-581.50393743 288.84608727 -588.63076803 288.83005738 -595.75778711 288.79379225 C-599.52903416 288.7753285 -603.29981795 288.76599263 -607.07110047 288.7782681 C-610.61886224 288.78970424 -614.16579449 288.7780042 -617.7134459 288.74863362 C-619.63401395 288.73882921 -621.55465847 288.75376206 -623.47518754 288.76944089 C-632.86936745 288.65605574 -632.86936745 288.65605574 -636.00764298 285.77018857 C-637.69470048 283.09498715 -637.69470048 283.09498715 -637.69201493 279.64820981 C-636.70954946 276.14789097 -635.53232505 273.39696308 -633.73766923 270.24342465 C-633.1182747 269.14256528 -632.49888017 268.0417059 -631.8607161 266.90748715 C-631.20780595 265.77311215 -630.55489579 264.63873715 -629.88220048 263.46998715 C-629.27182939 262.38975278 -628.66145829 261.3095184 -628.0325911 260.19654965 C-625.93299589 256.48861751 -623.81303764 252.79224405 -621.69470048 249.09498715 C-617.73470048 242.16498715 -613.77470048 235.23498715 -609.69470048 228.09498715 C-418.62470048 227.59998715 -418.62470048 227.59998715 -223.69470048 227.09498715 C-239.97571099 217.7152533 -239.97571099 217.7152533 -256.50720048 208.84498715 C-257.47254716 208.34668393 -258.43789384 207.84838071 -259.43249345 207.33497739 C-261.33553816 206.354597 -263.23977028 205.37651684 -265.14538407 204.4011395 C-267.32891374 203.28239944 -269.5067595 202.15361954 -271.68298173 201.0207684 C-301.91217627 185.42784832 -333.72008744 173.27766694 -365.94470048 162.53248715 C-366.68833848 162.28441312 -367.43197648 162.03633908 -368.19814897 161.78074765 C-377.63436633 158.64557936 -387.110258 155.74461441 -396.69470048 153.09498715 C-395.487435 149.72657629 -394.28133361 147.29654929 -391.81579423 144.70436215 C-391.23281571 144.08569272 -390.6498372 143.46702329 -390.04919267 142.82960629 C-389.41658525 142.17468198 -388.78397782 141.51975766 -388.13220048 140.84498715 C-387.47252275 140.15332456 -386.81284501 139.46166196 -386.13317704 138.74903989 C-383.99756327 136.52056246 -381.84832616 134.30605562 -379.69470048 132.09498715 C-378.97105302 131.34942563 -378.24740556 130.60386411 -377.50182939 129.83570981 C-369.27735162 121.39157094 -361.01910442 113.33124993 -351.69470048 106.09498715 C-350.58021529 105.18267539 -349.46840066 104.26709501 -348.35876298 103.3488934 C-325.80065751 84.77649201 -300.73501836 70.19455114 -274.69470048 57.09498715 C-273.83827958 56.65944516 -272.98185868 56.22390317 -272.09948564 55.77516294 C-208.14645748 23.41923486 -134.08110151 8.42131168 -63.13220048 2.34498715 C-62.09875504 2.25623822 -62.09875504 2.25623822 -61.04443192 2.16569638 C-40.6890653 0.44920379 -20.42397673 -0.05498458 0 0 Z " fill="#0483F1" transform="translate(1396.6947004795074,662.905012845993)"/>
<path d="M0 0 C1.7107105 1.0313563 3.42145669 2.06265718 5.13394165 3.09106445 C6.91872345 4.16611621 8.69745578 5.25072604 10.47607422 6.3359375 C15.69116348 9.50151422 21.00123617 12.49952356 26.30911255 15.50585938 C29.25161401 17.17420726 32.18826384 18.85278073 35.125 20.53125 C35.70435806 20.8622168 36.28371613 21.19318359 36.88063049 21.53417969 C44.02505683 25.61788751 51.14834166 29.73816884 58.2734375 33.85546875 C66.18983791 38.42704623 74.1225753 42.96946933 82.0625 47.5 C92.14983474 53.25584544 102.21764953 59.04464237 112.2734375 64.85546875 C120.18983791 69.42704623 128.1225753 73.96946933 136.0625 78.5 C145.07613197 83.64318934 154.07699917 88.80775492 163.0625 94 C172.00804468 99.16831052 180.96613416 104.31416326 189.9375 109.4375 C190.51721558 109.76860779 191.09693115 110.09971558 191.69421387 110.44085693 C197.60266638 113.81521064 203.51263089 117.18690462 209.42417908 120.55583191 C212.38740498 122.24476211 215.35008312 123.93465122 218.3125 125.625 C218.89526703 125.95746735 219.47803406 126.28993469 220.07846069 126.63247681 C228.1645964 131.24769213 236.21808097 135.91606336 244.25 140.625 C253.50301231 146.04963146 262.83647935 151.31674912 272.20654297 156.53613281 C278.63611365 160.12346424 285.01188593 163.78345323 291.34179688 167.54321289 C298.01862268 171.49905781 304.75808809 175.34409796 311.5 179.1875 C320.70174521 184.43394517 329.89180146 189.69936291 339.0625 195 C348.04789491 200.19242748 357.04886887 205.35681114 366.0625 210.5 C376.13704211 216.24854595 386.19506137 222.0249214 396.23388672 227.83569336 C402.01799462 231.1802245 407.81567851 234.49854463 413.6328125 237.78515625 C415.53462481 238.86225646 417.43626237 239.93966472 419.33789062 241.01708984 C420.55125555 241.70289087 421.76573932 242.38671693 422.98144531 243.06835938 C442.16863209 253.82692745 442.16863209 253.82692745 444.5 260.0625 C444.79261719 260.83722656 445.08523438 261.61195313 445.38671875 262.41015625 C448.243908 271.24597271 447.7088523 279.94195672 444.0625 288.5 C440.97808726 294.28803379 437.1559623 296.68982694 431.625 299.8125 C430.76245605 300.31467041 429.89991211 300.81684082 429.01123047 301.33422852 C427.08990829 302.45189655 425.16523286 303.56381389 423.23779297 304.67089844 C419.83679242 306.63001701 416.4497778 308.61223205 413.06640625 310.6015625 C411.84758648 311.31797223 410.62875498 312.034362 409.40991211 312.75073242 C408.79824188 313.11024994 408.18657166 313.46976746 407.55636597 313.84017944 C404.4277913 315.67714868 401.2956985 317.50810022 398.1640625 319.33984375 C392.12019088 322.8763695 386.08805669 326.43236972 380.0625 330 C371.57618175 335.02343731 363.07215574 340.01624805 354.5625 345 C342.37791162 352.13648091 330.21365662 359.30673381 318.0625 366.5 C305.28560396 374.06369267 292.49240422 381.59880903 279.68014526 389.10241699 C271.79806788 393.7189031 263.92313775 398.34706644 256.0625 403 C247.57611759 408.0233295 239.07215622 413.01624777 230.5625 418 C218.37791162 425.13648091 206.21365662 432.30673381 194.0625 439.5 C181.28560396 447.06369267 168.49240422 454.59880903 155.68014526 462.10241699 C147.79806788 466.7189031 139.92313775 471.34706644 132.0625 476 C122.94974072 481.39409966 113.8160281 486.75201516 104.67822266 492.10351562 C95.92101745 497.23257314 87.17529223 502.38051609 78.44262695 507.55126953 C73.34821274 510.56539094 68.24643871 513.56659041 63.13671875 516.5546875 C62.53556747 516.9062944 61.9344162 517.25790131 61.31504822 517.62016296 C55.92860628 520.77056837 55.92860628 520.77056837 53.89144897 521.96170044 C45.18032753 527.05731178 36.5146781 532.22143016 27.875 537.4375 C20.57879607 541.83575717 13.25487995 546.16553666 5.8125 550.3125 C5.09167236 550.71525146 4.37084473 551.11800293 3.62817383 551.53295898 C-4.70762013 556.12273646 -13.09963974 559.12364075 -22.6875 556.5625 C-28.75294409 554.19284622 -32.21085542 549.32864592 -35.50814307 543.92692089 C-37.31493971 539.59507834 -37.35386333 536.07980736 -37.31502342 531.438797 C-37.31938374 530.53207996 -37.32374407 529.62536293 -37.32823652 528.69116962 C-37.33921406 525.64267617 -37.32875894 522.59463298 -37.31845093 519.54614258 C-37.32190649 517.34259465 -37.32667037 515.13904844 -37.33263266 512.93550587 C-37.34518614 506.87215839 -37.33895247 500.8089521 -37.32967401 494.74560404 C-37.32359692 488.88071856 -37.33157184 483.0158634 -37.3391161 477.15098211 C-37.35492061 464.41362031 -37.35354126 451.67630362 -37.34487936 438.93893752 C-37.33733636 427.79234551 -37.33536088 416.64577006 -37.3389473 405.49917603 C-37.33917645 404.76015003 -37.33940561 404.02112404 -37.33964171 403.25970332 C-37.3405757 400.25984878 -37.3415309 397.25999424 -37.342521 394.26013972 C-37.35170054 366.11212629 -37.34337358 337.96414161 -37.32723031 309.81613262 C-37.31299321 284.80155999 -37.31426708 259.78703317 -37.32861328 234.77246094 C-37.34467289 206.67633581 -37.35104957 178.5802361 -37.34177649 150.48410702 C-37.34081432 147.48967934 -37.3398758 144.49525166 -37.3389473 141.50082397 C-37.33871006 140.76350516 -37.33847283 140.02618634 -37.33822841 139.26652453 C-37.33481422 128.12621325 -37.33881012 116.98592032 -37.34638596 105.84561157 C-37.35495595 93.18014166 -37.35283588 80.51472396 -37.33654372 67.84926057 C-37.32864461 61.38379357 -37.32559737 54.9184197 -37.33549118 48.45295334 C-37.34440456 42.5388618 -37.33956068 36.62495005 -37.32355852 30.71087492 C-37.32019646 28.56695273 -37.32193657 26.42301548 -37.32918589 24.27910292 C-37.33826189 21.37291799 -37.32899885 18.46735506 -37.31502342 15.561203 C-37.32204692 14.7219597 -37.32907042 13.88271641 -37.33630675 13.01804149 C-37.27529592 6.70302458 -35.75849252 2.66550462 -31.625 -2.25 C-21.38951516 -10.81924313 -9.97356638 -6.26980553 0 0 Z " fill="#0483F1" transform="translate(1419.9375,997.5)"/>
<path d="M0 0 C1.94343991 -0.00579485 3.88687086 -0.01597851 5.83026761 -0.03016782 C11.16586328 -0.05640203 16.49949457 -0.02029071 21.83488667 0.02602911 C27.5901641 0.06509968 33.345289 0.04642769 39.10064697 0.03485107 C50.37192871 0.02121158 61.64243717 0.06054959 72.91356049 0.11717764 C86.03138817 0.18082701 99.1490789 0.18967615 112.26703873 0.1955615 C135.66470215 0.2076928 159.06201873 0.26586866 182.45951843 0.35174561 C205.18055311 0.43508752 227.9014273 0.49175298 250.62260437 0.51580811 C251.32290925 0.51655724 252.02321413 0.51730638 252.74474037 0.51807821 C258.37848442 0.52409443 264.01222859 0.53001687 269.64597292 0.53576588 C294.58914095 0.56128559 319.53226681 0.6094374 344.47539279 0.66119182 C348.40617152 0.66915934 352.33695094 0.67659534 356.26773095 0.68389988 C370.02204403 0.70991957 383.77629265 0.74252314 397.53053699 0.79386869 C403.21993928 0.81508066 408.90930504 0.83328068 414.59873962 0.84300995 C419.80017534 0.85207658 425.00149105 0.8703838 430.2028692 0.89633283 C432.09095051 0.90416288 433.97904929 0.90860955 435.86714665 0.90944925 C438.42096092 0.91112604 440.97442152 0.92492933 443.52817249 0.94197464 C444.6439843 0.93838131 444.6439843 0.93838131 445.78233775 0.93471539 C449.47956864 0.97317475 451.05326296 1.10808962 454.21513367 3.21600342 C454.50916774 6.36023815 454.60590445 9.30736458 454.57589722 12.45394897 C454.57846049 13.42345973 454.58102377 14.39297049 454.58366472 15.39186037 C454.58863095 18.66104394 454.57206286 21.9297721 454.55570984 25.19891357 C454.55486418 27.53415414 454.55533751 29.86939551 454.55703735 32.20463562 C454.55790112 38.56182172 454.54021368 44.91883938 454.51931548 51.27598619 C454.50250539 57.24123428 454.49944925 63.20647558 454.49635986 69.17174415 C454.48978954 80.98926352 454.46981266 92.80672086 454.44145203 104.62420654 C454.41392646 116.10564869 454.39268554 127.58707401 454.37992859 139.06854248 C454.37914042 139.77593499 454.37835225 140.48332749 454.37754019 141.21215613 C454.37362516 144.76083964 454.36983402 148.30952328 454.36610448 151.85820699 C454.33499049 181.31084581 454.28191634 210.76342395 454.21513367 240.21600342 C447.13510281 238.44835409 440.05525295 236.67998119 432.97551918 234.91114235 C430.57502875 234.31147684 428.17449932 233.71196741 425.77392769 233.11262703 C407.3722861 228.51820727 388.98814463 223.86270519 370.62504578 219.11665344 C367.01613581 218.18441484 363.40662952 217.25449024 359.79716492 216.32440186 C358.28465174 215.93463512 356.77213954 215.54486459 355.2596283 215.15509033 C354.50399849 214.96036636 353.74836868 214.7656424 352.969841 214.5650177 C350.68206894 213.9753618 348.39436282 213.38545071 346.10667419 212.79547119 C335.13704604 209.96677843 324.16502958 207.14747351 313.19169617 204.33319092 C312.40437922 204.13126884 311.61706226 203.92934677 310.80588722 203.72130585 C307.6345092 202.90796008 304.46312968 202.09462015 301.29174519 201.28129959 C288.37076133 197.96737539 275.4514252 194.64703589 262.53233337 191.32574463 C259.66859344 190.58954959 256.8047813 189.85363643 253.94090271 189.11798096 C246.03570528 187.08725268 238.13138804 185.05318376 230.2285614 183.01324463 C227.86266064 182.40307257 225.49645385 181.7940858 223.12992859 181.18634033 C219.92701075 180.36354602 216.72522637 179.53648603 213.52372742 178.70819092 C212.58290817 178.46750885 211.64208893 178.22682678 210.67276001 177.97885132 C209.40487389 177.64933975 209.40487389 177.64933975 208.1113739 177.31317139 C207.37748947 177.12399139 206.64360504 176.9348114 205.88748169 176.73989868 C204.21513367 176.21600342 204.21513367 176.21600342 203.21513367 175.21600342 C201.94258248 165.04785127 201.84885765 154.67409261 201.46122742 144.43865967 C201.39549198 142.73874038 201.32965839 141.03882489 201.26373291 139.33891296 C201.12673803 135.78978769 200.99170775 132.24059412 200.85795593 128.69134521 C200.68884478 124.21080884 200.51365806 119.73053393 200.33677578 115.2502985 C200.19911225 111.74013764 200.06541882 108.22983304 199.93274117 104.71948051 C199.86988849 103.07133333 199.80575863 101.42323419 199.74015617 99.77519417 C199.3683355 90.38623371 199.17783359 81.01643179 199.19891357 71.61955261 C199.20008446 70.61331203 199.20125535 69.60707145 199.20246172 68.57033873 C199.20548469 66.11888924 199.20972922 63.66744861 199.21513367 61.21600342 C197.974383 61.2187688 196.73363234 61.22153418 195.45528316 61.22438335 C165.99836184 61.28936539 136.5414568 61.33882921 107.08448156 61.36919941 C103.4583544 61.3729515 99.8322274 61.37683447 96.20610046 61.38079834 C95.12326156 61.38197874 95.12326156 61.38197874 94.01854713 61.38318298 C82.33177273 61.39623473 70.64504263 61.41988731 58.9582945 61.44746181 C46.96544186 61.47552242 34.97261241 61.49218106 22.97972828 61.4982689 C16.24399613 61.50201486 9.50835633 61.51102001 2.77265739 61.53319359 C-3.5662536 61.55354438 -9.90502268 61.55983999 -16.24396324 61.55532646 C-18.57117611 61.55615228 -20.89839368 61.56212618 -23.22557831 61.57361984 C-26.40250307 61.58854159 -29.57889173 61.58495783 -32.75582886 61.57676697 C-33.67704845 61.58550549 -34.59826805 61.59424402 -35.5474034 61.60324734 C-41.05426102 61.56486185 -44.91245273 60.8426488 -49.78486633 58.21600342 C-52.74148915 54.87788088 -53.14233906 51.89120571 -53.28096008 47.47381592 C-51.95716077 41.44896549 -47.71049423 36.66334867 -43.72236633 32.15350342 C-38.83067343 26.50019984 -34.17361718 20.69914665 -29.58564758 14.79803467 C-28.9464519 14.02078061 -28.9464519 14.02078061 -28.29434317 13.22782445 C-26.70153132 11.20488753 -26.70153132 11.20488753 -25.421758 8.7214458 C-19.23726187 -1.29722361 -10.54402606 -0.16734423 0 0 Z " fill="#0483F1" transform="translate(643.7848663330078,1143.7839965820313)"/>
<path d="M0 0 C21.5325 -0.061875 43.065 -0.12375 65.25 -0.1875 C72.01145508 -0.21481201 78.77291016 -0.24212402 85.73925781 -0.27026367 C94.09130859 -0.28381348 94.09130859 -0.28381348 98.01971436 -0.28633118 C100.72317888 -0.29089323 103.42619998 -0.30018439 106.12957764 -0.31672668 C148.59082636 -0.5649151 187.62428383 7.80987657 219.25 37.8125 C243.45038017 63.00469903 250.89703783 94.78385471 250.28125 128.828125 C249.30548841 160.0037078 236.76464878 187.69189181 214.19140625 209.15234375 C158.76576002 259.77477706 63.2655045 243 0 243 C0 162.81 0 82.62 0 0 Z M69 55 C69 98.56 69 142.12 69 187 C120.43620564 189.62464979 120.43620564 189.62464979 163.8125 167.6875 C177.45927073 153.28528303 180.63598075 135.10136059 180.25 115.953125 C179.61653539 99.39436016 173.18481871 83.2014072 161.03125 71.6875 C134.48104941 49.63041028 102.25757947 55 69 55 Z " fill="#FFFFFF" transform="translate(1522,2027)"/>
<path d="M0 0 C13.72703949 11.93744026 23.8948495 26.19451176 29.1875 43.6875 C29.38214844 44.32478027 29.57679688 44.96206055 29.77734375 45.61865234 C37.94069781 73.61015317 34.61661296 104.78804683 21.3125 130.5625 C8.94436577 151.99846321 -10.80215056 165.93587046 -34.28125 172.83984375 C-56.70546943 178.22264864 -79.77152811 176.50043048 -100.14453125 165.4453125 C-103.59486313 163.17203381 -106.67532871 160.37650397 -109.8125 157.6875 C-110.1425 184.7475 -110.4725 211.8075 -110.8125 239.6875 C-132.5925 239.6875 -154.3725 239.6875 -176.8125 239.6875 C-176.8125 155.2075 -176.8125 70.7275 -176.8125 -16.3125 C-156.0225 -16.3125 -135.2325 -16.3125 -113.8125 -16.3125 C-113.3175 -8.3925 -113.3175 -8.3925 -112.8125 -0.3125 C-111.8225 -1.3025 -110.8325 -2.2925 -109.8125 -3.3125 C-80.19430727 -29.14964685 -29.2239332 -23.03242193 0 0 Z M-103.31640625 48.63671875 C-111.43692312 59.76797556 -113.2109411 73.84420917 -111.30859375 87.234375 C-109.94446307 94.49934523 -108.06481833 100.61275953 -103.8125 106.6875 C-103.38195313 107.31140625 -102.95140625 107.9353125 -102.5078125 108.578125 C-97.07069259 115.64330906 -89.39339196 119.69194373 -80.8125 121.6875 C-68.25327784 122.8583794 -57.64173693 121.60958189 -47.4375 113.5 C-38.87306267 105.30947782 -34.30592504 93.97134729 -33.609375 82.27734375 C-33.41844411 67.40064516 -35.82881538 55.09826262 -46.0625 43.875 C-53.65568506 36.78356726 -64.22335799 33.09048224 -74.5859375 33.44140625 C-86.64941457 34.77473793 -95.62912015 39.20958499 -103.31640625 48.63671875 Z " fill="#0483F1" transform="translate(1454.8125,2097.3125)"/>
<path d="M0 0 C21.78 0 43.56 0 66 0 C66 28.05 66 56.1 66 85 C70.29 82.03 74.58 79.06 79 76 C101.27597582 64.34396614 127.60068589 62.83958766 151.53125 70.06640625 C169.60366144 76.58538324 183.9030375 87.62332929 192.18017578 105.12744141 C200.72226898 124.63841663 200.28172239 144.81617349 200.1953125 165.71484375 C200.19157604 168.38383819 200.18863348 171.05282185 200.18673706 173.72181702 C200.18056607 179.98997783 200.16421582 186.25806734 200.14403808 192.52619702 C200.11932664 200.37617486 200.10850634 208.22616473 200.09765625 216.07617188 C200.07828053 230.05083652 200.03819951 244.02534603 200 258 C177.89 258 155.78 258 133 258 C132.96132812 246.53185547 132.96132812 246.53185547 132.921875 234.83203125 C132.89668895 229.96936818 132.87034234 225.10676621 132.83984375 220.24414062 C132.79161507 212.53718893 132.74753026 204.83037882 132.72900391 197.12329102 C132.71378643 190.90503488 132.67925017 184.68715079 132.63169098 178.4690609 C132.61692967 176.10462375 132.60896202 173.74013348 132.60811615 171.37565041 C132.99336111 149.67320794 132.99336111 149.67320794 123.7109375 130.5859375 C116.69035438 124.0782737 108.04172707 123.53673753 98.89453125 123.73046875 C89.99226862 124.34657318 83.32392939 127.54604003 76.9375 133.75 C65.3842279 147.16670308 66.53707708 166.20279595 66.48828125 182.8046875 C66.47140477 184.98187248 66.45325062 187.1590479 66.43388367 189.33621216 C66.38669983 195.02090463 66.35668691 200.7055583 66.33044434 206.39038086 C66.29519416 213.23562962 66.23827271 220.08072946 66.18505096 226.92585754 C66.10690854 237.28388518 66.05602201 247.64172287 66 258 C44.22 258 22.44 258 0 258 C0 172.86 0 87.72 0 0 Z " fill="#FFFFFF" transform="translate(2210,2012)"/>
<path d="M0 0 C1.06613525 -0.00101212 1.06613525 -0.00101212 2.15380859 -0.00204468 C19.85492649 0.02458664 36.08459693 2.1997341 52.75 8.25 C53.7709375 8.61867188 54.791875 8.98734375 55.84375 9.3671875 C69.02936791 14.50674287 81.32998659 21.6576756 91.75 31.25 C92.32508301 31.7773877 92.90016602 32.30477539 93.49267578 32.84814453 C95.34807268 34.56679199 97.17779064 36.3087431 99 38.0625 C99.58612061 38.61389648 100.17224121 39.16529297 100.77612305 39.73339844 C102.390625 41.33203125 102.390625 41.33203125 104.75 44.25 C104.49112722 47.75761738 102.95865266 49.36139234 100.43359375 51.67578125 C99.40975586 52.62420898 99.40975586 52.62420898 98.36523438 53.59179688 C97.64658203 54.24212891 96.92792969 54.89246094 96.1875 55.5625 C95.15012695 56.5205957 95.15012695 56.5205957 94.09179688 57.49804688 C89.9919861 61.26926144 85.81926315 64.95125409 81.6184082 68.60913086 C78.40863521 71.42801029 75.28294953 74.33578956 72.15234375 77.2421875 C62.39388021 86.25 62.39388021 86.25 59.75 86.25 C58.3046875 84.74609375 58.3046875 84.74609375 56.625 82.6875 C45.85777147 70.12941826 32.1168071 62.14144419 15.75 59.25 C-6.01535895 57.72890059 -24.6545085 60.56501823 -41.83203125 74.9296875 C-55.85941149 88.39053381 -61.94019325 106.85335343 -62.4375 125.9375 C-62.14903735 144.60103341 -56.43136348 162.0159592 -43.83203125 175.91796875 C-30.55841078 188.51630169 -12.27978609 194.97465704 5.96484375 194.5 C28.72658863 192.45687002 45.25967308 182.72907119 60.75 166.25 C66.22124452 170.05154592 70.89195443 174.27321484 75.54296875 179.03515625 C78.09467215 181.59589223 80.77358464 183.94811062 83.515625 186.30078125 C86.32801405 188.75424652 89.06948967 191.28221811 91.8125 193.8125 C96.05074189 197.71752381 100.33898871 201.5407405 104.75 205.25 C103.25950832 214.73298327 91.71887249 222.17812884 84.4296875 227.64453125 C78.81475524 231.70636552 72.89245006 235.05902537 66.75 238.25 C65.24953125 239.04857422 65.24953125 239.04857422 63.71875 239.86328125 C57.11172542 243.15827933 50.38651516 245.43144117 43.3125 247.5 C42.47904053 247.74637207 41.64558105 247.99274414 40.78686523 248.24658203 C27.82614281 251.86184282 14.92702509 252.63003043 1.5625 252.5625 C0.40838623 252.55926727 0.40838623 252.55926727 -0.76904297 252.55596924 C-36.42394511 252.39590338 -70.30380759 241.53611315 -96.25 216.25 C-97.095625 215.445625 -97.94125 214.64125 -98.8125 213.8125 C-99.616875 212.966875 -100.42125 212.12125 -101.25 211.25 C-101.90355469 210.59128906 -102.55710937 209.93257812 -103.23046875 209.25390625 C-124.51793299 186.94054012 -133.90441599 154.38938762 -133.60327148 124.06176758 C-132.60765108 91.69875153 -121.75239304 62.7075031 -99.25 39.25 C-98.48042969 38.41726562 -97.71085938 37.58453125 -96.91796875 36.7265625 C-77.62826887 16.4708195 -50.52927904 5.30976423 -23.25 1.25 C-22.09242188 1.06566406 -20.93484375 0.88132812 -19.7421875 0.69140625 C-13.19671228 -0.09458794 -6.58325647 0.0056103 0 0 Z " fill="#0483F1" transform="translate(930.25,2021.75)"/>
<path d="M0 0 C16.60615393 15.71013843 23.74067438 36.67554638 24.43099976 59.21710205 C24.55438927 66.35334186 24.51016645 73.48821083 24.46484375 80.625 C24.45923603 83.24486038 24.4549715 85.86472395 24.45198059 88.48458862 C24.44274375 94.62519675 24.41824643 100.76564011 24.38793212 106.90617645 C24.35079248 114.60017949 24.33461873 122.29421062 24.31835938 129.98828125 C24.28934103 143.67721091 24.22921295 157.36578227 24.171875 171.0546875 C3.711875 171.0546875 -16.748125 171.0546875 -37.828125 171.0546875 C-38.158125 164.4546875 -38.488125 157.8546875 -38.828125 151.0546875 C-40.271875 152.7459375 -41.715625 154.4371875 -43.203125 156.1796875 C-55.37221497 169.78982766 -71.9613222 173.05803033 -89.625 174.2421875 C-110.13267389 174.73934323 -131.72109582 169.97346418 -147.2421875 155.77734375 C-159.1744337 142.81645564 -163.69392727 128.12340881 -163.17578125 110.79296875 C-162.58728032 100.30752737 -159.35579632 91.31279138 -152.828125 83.0546875 C-152.085625 82.0234375 -151.343125 80.9921875 -150.578125 79.9296875 C-135.62823458 64.3002566 -112.64667248 59.64992148 -91.80334473 58.9536438 C-83.79066175 58.81211584 -75.77886667 58.87148924 -67.765625 58.9296875 C-65.33789434 58.9397429 -62.91015962 58.9488642 -60.48242188 58.95703125 C-54.59756614 58.97882901 -48.71286514 59.01210149 -42.828125 59.0546875 C-43.26928133 57.14395392 -43.72045821 55.23553231 -44.17578125 53.328125 C-44.42593994 52.26513184 -44.67609863 51.20213867 -44.93383789 50.10693359 C-46.64752143 44.25804699 -49.40290089 40.66431772 -54.46484375 37.3046875 C-71.37786602 28.10754075 -90.69579774 30.06489914 -108.60546875 35.12109375 C-115.75947298 37.5163018 -122.03545906 40.65853009 -128.40234375 44.69921875 C-130.828125 46.0546875 -130.828125 46.0546875 -133.828125 46.0546875 C-136.8271253 39.98981667 -139.8169188 33.92047297 -142.80029297 27.84790039 C-143.81672078 25.78174856 -144.83526763 23.7166378 -145.85595703 21.65258789 C-147.32099131 18.68906131 -148.77841468 15.72189916 -150.234375 12.75390625 C-150.69372437 11.8288176 -151.15307373 10.90372894 -151.62634277 9.9506073 C-152.04677856 9.08994156 -152.46721436 8.22927582 -152.90039062 7.3425293 C-153.27345337 6.58530075 -153.64651611 5.8280722 -154.03088379 5.04789734 C-154.828125 3.0546875 -154.828125 3.0546875 -154.828125 0.0546875 C-112.05836792 -24.30783236 -40.62164826 -35.03276376 0 0 Z M-95.328125 102.03515625 C-98.35865916 106.11532854 -99.09215339 110.22653728 -98.625 115.23046875 C-97.70803274 119.7388911 -96.14666011 122.91081214 -92.828125 126.0546875 C-83.78329173 131.56347484 -74.19467649 132.53744209 -63.78125 130.44140625 C-55.07641792 127.6504502 -48.01394211 122.14955856 -43.59350586 114.05932617 C-42.16398232 110.31520567 -42.41257611 106.56807549 -42.578125 102.6171875 C-42.59617187 101.79025391 -42.61421875 100.96332031 -42.6328125 100.11132812 C-42.6795036 98.09193817 -42.75123107 96.07315305 -42.828125 94.0546875 C-47.45048616 93.97959916 -52.07247947 93.92565088 -56.6953125 93.88989258 C-58.26243283 93.87495998 -59.82951254 93.85460635 -61.39648438 93.82836914 C-79.78040614 93.34131084 -79.78040614 93.34131084 -95.328125 102.03515625 Z " fill="#FFFFFF" transform="translate(1955.828125,2098.9453125)"/>
<path d="M0 0 C-3.78952157 10.34070641 -8.21458032 20.31298145 -12.8125 30.3125 C-13.51272601 31.84293603 -14.21259796 33.3735341 -14.91210938 34.90429688 C-16.60400992 38.60473949 -18.30064177 42.30297663 -20 46 C-21.1859375 45.46890625 -22.371875 44.9378125 -23.59375 44.390625 C-40.13105033 37.12335062 -55.67202586 32.82372255 -73.875 32.8125 C-74.91269531 32.80025391 -75.95039063 32.78800781 -77.01953125 32.77539062 C-85.97005674 32.75846025 -93.80162351 33.20618478 -101 39 C-103.29616964 41.87648225 -103.29616964 41.87648225 -103.125 45.4375 C-102.33165833 49.30437429 -102.33165833 49.30437429 -98.62109375 51.07421875 C-93.56594469 53.40257282 -88.38748584 54.3890202 -82.9375 55.375 C-81.86838379 55.57996094 -80.79926758 55.78492187 -79.69775391 55.99609375 C-75.48357825 56.80166517 -71.26508507 57.5827903 -67.04559326 58.35998535 C-15.6079333 67.83530236 -15.6079333 67.83530236 -1.14453125 86.37890625 C7.12858839 99.10521128 7.88204307 115.13344179 5.34375 129.7890625 C1.24437161 144.59629996 -8.60788566 156.71552562 -21.875 164.3125 C-58.94894769 184.52334791 -105.58595716 182.16202824 -145.09375 170.55078125 C-153.83062576 167.82981214 -161.9801439 164.43450867 -170 160 C-169.4054237 154.72047404 -167.65429298 150.48869311 -165.47265625 145.71484375 C-165.12367783 144.93613419 -164.7746994 144.15742462 -164.41514587 143.3551178 C-163.30415456 140.87956614 -162.1836506 138.40846485 -161.0625 135.9375 C-159.94702311 133.46206143 -158.83350354 130.98575158 -157.7205658 128.50917053 C-157.02910727 126.97236056 -156.33580467 125.43637856 -155.64039612 123.90135193 C-154.01046268 120.29643996 -152.4299432 116.69051183 -151 113 C-147.52968655 114.34185453 -144.16145015 115.84841173 -140.78588867 117.41137695 C-131.43623966 121.68077625 -121.97761548 124.58857529 -112 127 C-111.0615625 127.23589844 -110.123125 127.47179688 -109.15625 127.71484375 C-94.09542927 130.97961027 -73.81571536 132.71475843 -60 125 C-57.94054984 123.36549876 -57.94054984 123.36549876 -57 121 C-57.03213882 116.21345274 -57.03213882 116.21345274 -59.609375 112.40234375 C-62.68071183 110.60069355 -65.7407049 109.84844076 -69.1875 109.125 C-69.94361572 108.95991943 -70.69973145 108.79483887 -71.47875977 108.62475586 C-79.02318539 107.05720558 -86.63925262 105.98200004 -94.26153564 104.87814331 C-143.28321509 97.76710532 -143.28321509 97.76710532 -158.9375 77.25 C-167.54644361 63.65366358 -167.75475041 47.64410539 -165.41015625 32.0859375 C-161.5586368 17.49631084 -151.08057692 6.13132402 -138.42602539 -1.50048828 C-100.91713549 -23.20840671 -37.27465483 -23.06901777 0 0 Z " fill="#FFFFFF" transform="translate(2176,2094)"/>
<path d="M0 0 C21.78 0 43.56 0 66 0 C66 85.14 66 170.28 66 258 C44.22 258 22.44 258 0 258 C0 172.86 0 87.72 0 0 Z " fill="#0483F1" transform="translate(1062,2012)"/>
<path d="M0 0 C21.78 0 43.56 0 66 0 C66 62.37 66 124.74 66 189 C44.22 189 22.44 189 0 189 C0 126.63 0 64.26 0 0 Z " fill="#0483F1" transform="translate(1170,2081)"/>
<path d="M0 0 C6.74992786 4.80541222 11.94195772 11.53625377 14.421875 19.4921875 C15.68867524 30.58479209 15.14170973 40.82654353 8.57421875 50.1015625 C0.81590763 59.61992605 -8.74259373 64.06042442 -20.85546875 65.375 C-34.25884815 65.7969322 -45.96880496 63.1554948 -56.5 54.5390625 C-63.49821174 47.64608702 -66.48476933 39.14429679 -66.828125 29.4921875 C-66.43379552 18.42905497 -62.30474507 10.80335978 -54.328125 3.1796875 C-40.20433786 -8.81716723 -15.61233708 -9.13085169 0 0 Z " fill="#0483F1" transform="translate(1228.578125,1996.5078125)"/>
</svg>
